HIERARCHY
ROOT SpineBase
{
  OFFSET 0.000000 0.000000 0.000000
  CHANNELS 6 Xposition Yposition Zposition Zrotation Xrotation Yrotation
  JOINT SpineMid
  {
    OFFSET 0.000000 27.107137 0.000000
    CHANNELS 3 Zrotation Xrotation Yrotation
    JOINT SpineShoulder
    {
      OFFSET -0.111467 20.201045 -0.695397
      CHANNELS 3 Zrotation Xrotation Yrotation
      JOINT Neck
      {
        OFFSET -0.057837 6.734172 -0.519979
        CHANNELS 3 Zrotation Xrotation Yrotation
        JOINT Head
        {
          OFFSET -3.005848 11.747628 1.742842
          CHANNELS 3 Zrotation Xrotation Yrotation
          End Site
          {
            OFFSET 0 0 0
          }
        }
      }
      JOINT ShoulderLeft
      {
        OFFSET -10.371989 -5.658910 4.557337
        CHANNELS 3 Zrotation Xrotation Yrotation
        JOINT ElbowLeft
        {
          OFFSET -0.564989 -26.489928 3.754254
          CHANNELS 3 Zrotation Xrotation Yrotation
          JOINT WristLeft
          {
            OFFSET -2.984722 -20.605846 -6.794605
            CHANNELS 3 Zrotation Xrotation Yrotation
            JOINT HandLeft
            {
              OFFSET 1.780550 -3.039946 -0.086246
              CHANNELS 3 Zrotation Xrotation Yrotation
              JOINT HandTipLeft
              {
                OFFSET 1.174228 -3.490692 -1.849721
                CHANNELS 3 Zrotation Xrotation Yrotation
                End Site
                {
                  OFFSET 0 0 0
                }
              }
              JOINT ThumbLeft
              {
                OFFSET -2.966589 -0.859504 -2.032355
                CHANNELS 3 Zrotation Xrotation Yrotation
                End Site
                {
                  OFFSET 0 0 0
                }
              }
            }
          }
        }
      }
      JOINT ShoulderRight
      {
        OFFSET 8.748946 -2.854597 -10.456837
        CHANNELS 3 Zrotation Xrotation Yrotation
        JOINT ElbowRight
        {
          OFFSET 6.413816 -23.749725 -3.418158
          CHANNELS 3 Zrotation Xrotation Yrotation
          JOINT WristRight
          {
            OFFSET -0.550657 -20.467585 -6.101712
            CHANNELS 3 Zrotation Xrotation Yrotation
            JOINT HandRight
            {
              OFFSET -2.184670 -5.072070 -0.740729
              CHANNELS 3 Zrotation Xrotation Yrotation
              JOINT HandTipRight
              {
                OFFSET -0.108851 -5.944967 0.100770
                CHANNELS 3 Zrotation Xrotation Yrotation
                End Site
                {
                  OFFSET 0 0 0
                }
              }
              JOINT ThumbRight
              {
                OFFSET -3.277225 -0.531738 -2.835136
                CHANNELS 3 Zrotation Xrotation Yrotation
                End Site
                {
                  OFFSET 0 0 0
                }
              }
            }
          }
        }
      }
    }
  }
  JOINT HipLeft
  {
    OFFSET -4.214616 0.471067 -0.477810
    CHANNELS 3 Zrotation Xrotation Yrotation
    JOINT KneeLeft
    {
      OFFSET 3.216863 -26.609129 0.685530
      CHANNELS 3 Zrotation Xrotation Yrotation
      JOINT AnkleLeft
      {
        OFFSET 10.435859 -36.377216 0.715032
        CHANNELS 3 Zrotation Xrotation Yrotation
        JOINT FootLeft
        {
          OFFSET -4.097386 -3.484281 -5.248252
          CHANNELS 3 Zrotation Xrotation Yrotation
          End Site
          {
            OFFSET 0 0 0
          }
        }
      }
    }
  }
  JOINT HipRight
  {
    OFFSET 3.707675 1.205568 -5.686357
    CHANNELS 3 Zrotation Xrotation Yrotation
    JOINT KneeRight
    {
      OFFSET 7.593375 -30.182129 -5.644885
      CHANNELS 3 Zrotation Xrotation Yrotation
      JOINT AnkleRight
      {
        OFFSET 4.524198 -31.410366 2.641791
        CHANNELS 3 Zrotation Xrotation Yrotation
        JOINT FootRight
        {
          OFFSET -4.227400 -6.201208 1.395001
          CHANNELS 3 Zrotation Xrotation Yrotation
          End Site
          {
            OFFSET 0 0 0
          }
        }
      }
    }
  }
}
MOTION
Frames: 13
Frame Time: 0.033333
29.733725 68.239165 371.232088 -0.000000 0.000000 33.323105 0.000000 0.000000 -33.323105 -0.000000 0.000000 0.000000 -0.000000 0.000000 0.000000 0.000000 0.000000 0.000000 -0.000000 0.000000 0.000000 -0.000000 0.000000 0.000000 -0.000000 0.000000 0.000000 -0.000000 0.000000 0.000000 0.000000 0.000000 0.000000 0.000000 0.000000 0.000000 -0.000000 0.000000 0.000000 -0.000000 0.000000 0.000000 -0.000000 0.000000 0.000000 -0.000000 0.000000 0.000000 0.000000 0.000000 0.000000 0.000000 0.000000 0.000000 0.000000 0.000000 -33.323105 -0.000000 0.000000 0.000000 -0.000000 0.000000 0.000000 0.000000 0.000000 0.000000 0.000000 0.000000 -33.323105 -0.000000 0.000000 0.000000 -0.000000 0.000000 0.000000 0.000000 0.000000 0.000000
29.824266 68.174944 371.282857 0.062000 -0.014192 32.705497 -0.044502 0.045442 -32.705471 -0.000000 0.000000 0.000000 -0.000000 0.000000 0.000000 0.000000 0.000000 0.000000 -0.197806 -2.351767 0.018019 0.019487 0.581604 0.295240 -0.111115 11.825831 5.621013 0.515118 -10.699112 -6.590348 0.000000 0.000000 0.000000 0.000000 0.000000 0.000000 -0.000000 0.000000 0.000000 -1.471835 -0.335219 0.443746 3.008436 2.171634 -1.512230 -4.645324 0.876426 0.869896 0.000000 0.000000 0.000000 0.000000 0.000000 0.000000 -0.322903 -0.749806 -32.801195 -0.196797 0.819265 0.095420 -0.253486 3.458751 -3.509256 0.000000 0.000000 0.000000 -0.044502 0.045442 -32.705471 -0.000000 0.000000 0.000000 2.077088 0.532328 0.096049 0.000000 0.000000 0.000000
29.913584 68.120260 371.324921 0.126116 -0.026553 32.239876 -0.092506 0.089738 -32.239774 -0.000000 0.000000 0.000000 -0.000000 0.000000 0.000000 0.000000 0.000000 0.000000 -0.367751 -4.405226 0.027587 -0.015861 1.177560 0.562359 -0.850073 20.587849 9.937308 0.112981 -18.495566 -11.303207 0.000000 0.000000 0.000000 0.000000 0.000000 0.000000 -1.419250 0.344557 0.302473 -1.435724 -0.890588 0.540591 5.979828 3.276361 -2.657008 -8.855464 1.907564 1.360557 0.000000 0.000000 0.000000 0.000000 0.000000 0.000000 -0.610791 -1.301716 -32.413029 -0.308311 1.452475 0.171681 -0.282719 5.475212 -5.581254 0.000000 0.000000 0.000000 -0.092506 0.089738 -32.239774 -0.000000 0.000000 0.000000 3.730735 0.914387 0.190995 0.000000 0.000000 0.000000
30.001678 68.075114 371.358279 0.192371 -0.037100 31.931371 -0.143641 0.133231 -31.931142 -0.000000 0.000000 0.000000 -0.000000 0.000000 0.000000 0.000000 0.000000 0.000000 -0.509455 -6.151002 0.031499 -0.110000 1.786375 0.803639 -1.655013 26.245299 12.833153 -0.443086 -23.285656 -14.277507 0.000000 0.000000 0.000000 0.000000 0.000000 0.000000 -2.198514 0.563133 0.481495 -1.957247 -1.204396 0.730601 8.899279 3.406873 -3.421075 -12.709173 3.162188 1.606670 0.000000 0.000000 0.000000 0.000000 0.000000 0.000000 -0.876883 -1.669787 -32.164147 -0.339101 1.916621 0.228844 -0.240979 6.399952 -6.579294 0.000000 0.000000 0.000000 -0.143641 0.133231 -31.931142 -0.000000 0.000000 0.000000 4.951501 1.142487 0.295678 0.000000 0.000000 0.000000
30.088550 68.039505 371.382931 0.260795 -0.045845 31.783012 -0.197542 0.176332 -31.782604 -0.000000 0.000000 0.000000 -0.000000 0.000000 0.000000 0.000000 0.000000 0.000000 -0.622639 -7.584584 0.032182 -0.266065 2.408365 1.021020 -2.171320 29.197867 14.299730 -0.757855 -25.441246 -15.647708 0.000000 0.000000 0.000000 0.000000 0.000000 0.000000 -3.011296 0.809471 0.677495 -2.372948 -1.430704 0.878226 11.771238 2.624382 -3.780066 -16.288909 4.683787 1.710601 0.000000 0.000000 0.000000 0.000000 0.000000 0.000000 -1.130506 -1.862672 -32.057850 -0.897276 1.702493 0.127192 0.408473 6.912021 -6.502576 0.000000 0.000000 0.000000 -0.197542 0.176332 -31.782604 -0.000000 0.000000 0.000000 5.733968 1.214113 0.417721 0.000000 0.000000 0.000000
30.174199 68.013433 371.398878 0.331414 -0.052803 31.795709 -0.253860 0.219497 -31.795070 -0.000000 0.000000 0.000000 -0.000000 0.000000 0.000000 0.000000 0.000000 0.000000 -0.707123 -8.704856 0.031636 -0.486478 3.045217 1.215861 -2.259914 29.832676 14.403245 -0.730841 -25.326367 -15.554946 0.000000 0.000000 0.000000 0.000000 0.000000 0.000000 -3.845873 1.080017 0.888493 -2.702227 -1.567435 0.991841 14.617322 0.963091 -3.698222 -19.671189 6.495956 1.752649 0.000000 0.000000 0.000000 0.000000 0.000000 0.000000 -1.377494 -1.884121 -32.094987 -0.165564 2.379068 0.287030 -0.098041 5.464455 -5.846896 0.000000 0.000000 0.000000 -0.253860 0.219497 -31.795070 -0.000000 0.000000 0.000000 6.074706 1.126955 0.561289 0.000000 0.000000 0.000000
30.285900 68.004544 371.412923 0.405571 -0.077202 31.876875 -0.303638 0.279736 -31.875861 -0.000000 0.000000 0.000000 -0.000000 0.000000 0.000000 0.000000 0.000000 0.000000 -0.773746 -9.500277 0.028792 -0.592516 4.141373 1.250079 -2.108996 27.297189 12.948921 -1.410383 -22.192086 -13.510302 0.000000 0.000000 0.000000 0.000000 0.000000 0.000000 -4.693876 1.381477 1.116041 -2.990596 -1.525980 1.087274 18.085574 -1.229738 -3.431522 -23.500834 8.918791 2.013186 0.000000 0.000000 0.000000 0.000000 0.000000 0.000000 -1.700671 -1.631681 -32.182247 0.164799 2.361699 0.286504 -0.496042 3.728079 -3.435334 0.000000 0.000000 0.000000 -0.832670 0.946842 -31.647755 0.800382 -0.290281 -0.220416 5.322873 -1.552331 2.397052 0.000000 0.000000 0.000000
30.399807 68.002964 371.389125 0.520218 -0.063759 32.431796 -0.404891 0.332800 -32.430331 -0.000000 0.000000 0.000000 -0.000000 0.000000 0.000000 0.000000 0.000000 0.000000 -0.813768 -10.384874 0.032395 -0.611283 6.459269 1.078223 -2.609325 19.106735 8.923865 -0.095232 -18.665637 -9.937459 0.000000 0.000000 0.000000 0.000000 0.000000 0.000000 -5.367813 1.608886 1.296812 -3.361266 -1.183107 1.219318 20.577753 -4.914188 -2.112461 -26.362107 11.265835 2.042033 0.000000 0.000000 0.000000 0.000000 0.000000 0.000000 -2.204847 -1.074746 -32.722120 0.754080 2.156933 0.265938 -2.387562 6.143103 -3.171120 0.000000 0.000000 0.000000 -0.926804 1.117452 -32.166096 0.859533 -0.386313 -0.254732 5.352100 -0.285458 1.458381 0.000000 0.000000 0.000000
30.449988 68.002698 371.360197 0.563329 -0.058247 33.031833 -0.440533 0.355901 -33.030178 -0.000000 0.000000 0.000000 -0.000000 0.000000 0.000000 0.000000 0.000000 0.000000 -0.853043 -11.064963 0.032753 -1.163616 7.248647 1.351207 -2.727312 16.634388 7.390640 0.454858 -17.137824 -8.447275 0.000000 0.000000 0.000000 0.000000 0.000000 0.000000 -5.868446 1.886699 1.468397 -3.810381 -1.040281 1.323868 22.564057 -8.600541 -0.539034 -27.040964 11.726115 1.676947 0.000000 0.000000 0.000000 0.000000 0.000000 0.000000 -2.203373 -0.272655 -33.238213 1.130185 1.491852 0.194601 -5.186437 3.502540 3.506574 0.000000 0.000000 0.000000 -0.891049 1.216963 -32.745422 0.844687 -0.480491 -0.275031 6.425102 4.727224 -2.144744 0.000000 0.000000 0.000000
30.472143 67.995364 371.376666 0.614142 -0.071082 33.620407 -0.472062 0.399228 -33.618381 -0.000000 0.000000 0.000000 -0.000000 0.000000 0.000000 0.000000 0.000000 0.000000 -0.732548 -10.771760 0.056772 -2.174186 6.386491 1.846787 -2.767668 14.645108 5.582079 2.637172 -12.974575 -6.130068 0.000000 0.000000 0.000000 0.000000 0.000000 0.000000 -6.679476 2.121279 1.681060 -3.932345 -1.062361 1.385989 24.963821 -14.488359 2.519259 -29.835305 17.525300 1.995582 0.000000 0.000000 0.000000 0.000000 0.000000 0.000000 -2.277723 0.022661 -33.804081 1.934549 2.319515 0.456296 0.180951 -4.657712 2.938806 0.000000 0.000000 0.000000 -0.788881 1.321797 -33.319371 0.771537 -0.596854 -0.290234 6.436021 7.628954 -4.422369 0.000000 0.000000 0.000000
30.490468 68.014382 371.400170 0.651964 -0.092670 34.023826 -0.488511 0.441596 -34.021416 -0.000000 0.000000 0.000000 -0.939704 -0.346409 0.048061 0.000000 0.000000 0.000000 -0.555729 -9.731321 0.081000 -2.516035 4.009794 2.060237 -2.852740 14.783833 4.692910 -0.419742 -10.843153 -3.816552 0.000000 0.000000 0.000000 0.000000 0.000000 0.000000 -7.601062 2.360044 1.918373 -4.183153 -0.891526 1.508623 29.588205 -20.606143 6.048005 -33.518856 20.023048 2.569901 0.000000 0.000000 0.000000 0.000000 0.000000 0.000000 -2.661548 0.119172 -34.232137 2.059015 2.202885 0.399022 0.859694 0.135461 -3.181680 0.000000 0.000000 0.000000 -0.799294 1.394123 -33.713481 0.280666 -1.238501 -0.438761 5.959172 8.895659 -4.980944 0.000000 0.000000 0.000000
30.537855 68.048327 371.428579 0.683919 -0.094282 34.329101 -0.511632 0.463543 -34.326469 -0.000000 0.000000 0.000000 -1.094685 -0.512275 0.026522 0.000000 0.000000 0.000000 -0.293501 -8.185906 0.111158 -2.873760 0.791575 2.253774 -1.658687 17.054335 4.651512 -6.375591 -12.320780 -3.177831 0.000000 0.000000 0.000000 0.000000 0.000000 0.000000 -8.519270 2.740699 2.209419 -4.326983 -1.123656 1.518584 33.222524 -24.576378 8.659246 -35.918483 21.315353 3.104003 0.000000 0.000000 0.000000 0.000000 0.000000 0.000000 -3.480184 0.018994 -34.618025 2.191197 2.051933 0.264814 3.961257 0.880639 -7.236320 0.000000 0.000000 0.000000 -0.904462 1.486060 -33.994228 0.326262 -1.222530 -0.463736 5.031670 8.521243 -4.825425 0.000000 0.000000 0.000000
30.596047 68.095550 371.478759 0.710703 -0.076793 34.537136 -0.541925 0.466175 -34.534455 -0.000000 0.000000 0.000000 -1.167157 -0.836636 -0.049616 0.000000 0.000000 0.000000 0.218632 -7.091100 0.194269 -3.448543 -1.001968 2.293473 -2.223489 18.143731 4.990135 -10.401911 -11.933082 -1.590308 0.000000 0.000000 0.000000 0.000000 0.000000 0.000000 -9.055092 2.948363 2.377593 -4.629868 -1.334883 1.575805 34.600788 -26.504637 9.835240 -37.256900 20.010054 3.273975 0.000000 0.000000 0.000000 0.000000 0.000000 0.000000 -4.104059 0.009489 -34.879094 2.210384 1.728260 0.115405 7.454996 -3.510474 -5.988051 0.000000 0.000000 0.000000 -1.056584 1.560367 -34.176202 1.040460 -0.616054 -0.343557 2.496414 3.322346 -1.814884 0.000000 0.000000 0.000000
